<!-- <svg xmlns="http://www.w3.org/2000/svg" xmlns:xlink="http://www.w3.org/1999/xlink" width="92" height="91.997" viewBox="0 0 92 91.997">
  <g transform="matrix(1, 0, 0, 1, 0, 0)" filter="url(#패스_1200)">
    <path id="패스_1200-2" data-name="패스 1200" d="M4704.041,604.654a33.032,33.032,0,0,0,22.013,16.836,30.685,30.685,0,0,0,25.838-5.4c.061-.045.113-.091.168-.14s.126-.092.193-.145c9.4-7.65,13.325-18.693,10.5-29.547a36.529,36.529,0,0,0-19.1-23.093c-9.792-4.709-20.136-3.5-27.68,3.233C4705.59,575.667,4697.419,591.592,4704.041,604.654Zm20.86-23.6c2.617,2.509,5.226,5.116,7.75,7.752l.432.449.5-.452c2.543-2.273,5.149-4.536,7.75-6.721a2.172,2.172,0,0,1,2.961.029l.058.055.027.03.036.028.017.016a1.605,1.605,0,0,1,.088,2.234,1.91,1.91,0,0,1-.292.28l-.027.023c-2.642,2.217-5.287,4.514-7.868,6.822l-.559.5.473.509c2.5,2.713,4.984,5.526,7.378,8.352a2.268,2.268,0,0,1-.421,3.151c-.017.02-.036.041-.055.061a1.636,1.636,0,0,1-2.347.031c-.039-.038-.075-.079-.113-.122-2.474-2.922-5.044-5.827-7.637-8.632l-.437-.473-.515.476c-2.667,2.471-5.336,5.03-7.934,7.591a2.142,2.142,0,0,1-1.483.607,1.805,1.805,0,0,1-1.381-.61,2.094,2.094,0,0,1,.088-2.769c2.612-2.579,5.289-5.143,7.97-7.627l.559-.512-.484-.5c-2.446-2.552-4.989-5.1-7.519-7.518a1.932,1.932,0,0,1-.468-1.47,2.289,2.289,0,0,1,.716-1.469A1.992,1.992,0,0,1,4724.9,581.052Z" transform="translate(-4686.65 -550.33)"/>
  </g>
</svg> -->

<svg xmlns="http://www.w3.org/2000/svg" width="88.005" height="88" viewBox="0 0 88.005 88">
  <path id="패스_1200" data-name="패스 1200" d="M4705.043,623.245c6,11.848,17.684,20.782,31.246,23.9a43.555,43.555,0,0,0,36.676-7.663c.086-.063.16-.129.238-.2.094-.063.18-.131.273-.205,13.336-10.859,18.914-26.534,14.906-41.94a51.852,51.852,0,0,0-27.109-32.779c-13.9-6.684-28.582-4.969-39.289,4.589C4707.242,582.1,4695.645,604.7,4705.043,623.245Zm29.609-33.5c3.715,3.561,7.418,7.262,11,11l.613.637.715-.641c3.609-3.227,7.309-6.438,11-9.541a3.082,3.082,0,0,1,4.2.041l.082.079.039.043.051.04.023.022a2.278,2.278,0,0,1,.125,3.171,2.727,2.727,0,0,1-.414.4l-.039.033c-3.75,3.147-7.5,6.407-11.168,9.684l-.793.71.672.723c3.543,3.851,7.074,7.844,10.473,11.855,1.379,1.639.4,3.572-.6,4.473-.023.029-.051.058-.078.087a2.323,2.323,0,0,1-3.332.044c-.055-.054-.105-.112-.16-.173-3.512-4.147-7.16-8.271-10.84-12.252l-.621-.672-.73.676c-3.785,3.507-7.574,7.14-11.262,10.775a3.04,3.04,0,0,1-2.105.862,2.563,2.563,0,0,1-1.961-.865,2.973,2.973,0,0,1,.125-3.93c3.707-3.661,7.508-7.3,11.313-10.827l.793-.727-.687-.708c-3.473-3.623-7.082-7.234-10.672-10.671a2.74,2.74,0,0,1-.664-2.087,3.25,3.25,0,0,1,1.016-2.085A2.827,2.827,0,0,1,4734.652,589.743Z" transform="translate(-4701.652 -560.331)" fill="#fff"/>
</svg>
