<svg xmlns="http://www.w3.org/2000/svg" width="132.287" height="67.291" viewBox="0 0 132.287 67.291">
  <g id="그룹_218" data-name="그룹 218" transform="translate(-389.811 -622.056)">
    <g id="그룹_214" data-name="그룹 214" transform="translate(392.964 625.33)">
      <path id="패스_203" data-name="패스 203" d="M444.3,627.425q-9.134,12.188-19.266,23.6a22.623,22.623,0,0,0-3.395,4.511,2.035,2.035,0,0,0-.112,2.186,2.217,2.217,0,0,0,1.348.594,72.243,72.243,0,0,0,21.61.726" transform="translate(-405.843 -625.957)" fill="none" stroke="#ffb6a5" stroke-linecap="round" stroke-linejoin="round" stroke-miterlimit="10" stroke-width="6"/>
      <path id="패스_204" data-name="패스 204" d="M445.657,706.645a10.715,10.715,0,0,0-6.551,9.055,10.06,10.06,0,0,0,5.524,10.129c3.747,1.695,9.835.351,11.964-3.167a10.443,10.443,0,0,0,1-2.287,12.14,12.14,0,0,0-2.4-11.474c-2.576-2.705-4.767-3.545-8.818-2.443" transform="translate(-415.842 -666.558)" fill="none" stroke="#ffb6a5" stroke-linecap="round" stroke-linejoin="round" stroke-miterlimit="10" stroke-width="6"/>
      <path id="패스_205" data-name="패스 205" d="M496.774,706.629a10.714,10.714,0,0,0-6.551,9.055,10.06,10.06,0,0,0,5.523,10.129c3.747,1.695,9.835.352,11.964-3.167a10.4,10.4,0,0,0,1-2.288,12.139,12.139,0,0,0-2.4-11.474c-2.576-2.705-4.767-3.545-8.819-2.444" transform="translate(-441.221 -666.55)" fill="none" stroke="#ffb6a5" stroke-linecap="round" stroke-linejoin="round" stroke-miterlimit="10" stroke-width="6"/>
      <path id="패스_206" data-name="패스 206" d="M393.176,704.77c4.872-.641,8.379-1.133,12.5,1.544a9.968,9.968,0,0,1,3.9,7.69c.245,2.792.279,4.708-1.03,6.91-1.608,2.706-3.559,3.495-6.621,4.22a14.324,14.324,0,0,1-8.031-.355c-.212-.082.132.186,0,0-.1-.137.015.167,0,0-.556-6.439-1.293-18.632-.712-20.01" transform="translate(-392.964 -665.706)" fill="none" stroke="#ffb6a5" stroke-linecap="round" stroke-linejoin="round" stroke-miterlimit="10" stroke-width="6"/>
      <path id="패스_207" data-name="패스 207" d="M544.745,725.39,544.427,704" transform="translate(-468.194 -665.57)" fill="none" stroke="#ffb6a5" stroke-linecap="round" stroke-miterlimit="10" stroke-width="6"/>
      <path id="패스_208" data-name="패스 208" d="M544.872,704.352q7.231,10.889,15.288,21.2" transform="translate(-468.392 -665.744)" fill="none" stroke="#ffb6a5" stroke-linecap="round" stroke-miterlimit="10" stroke-width="6"/>
      <path id="패스_209" data-name="패스 209" d="M575.747,724.8l.033-3.323.178-18.217" transform="translate(-483.75 -665.203)" fill="none" stroke="#ffb6a5" stroke-linecap="round" stroke-linejoin="round" stroke-miterlimit="10" stroke-width="6"/>
      <path id="패스_210" data-name="패스 210" d="M607.749,709.778c-.185-3.57-2.782-6.664-6.356-6.691s-5.616.587-8.061,3.776c-2.7,3.52-3.674,7.458-1.689,12.758a7.459,7.459,0,0,0,5.666,5.03l.05.008c2.49.367,7.088.475,8.923-1.247,1.029-.966,1.533-2.742,1.448-5.257-.012-.345-.068-1.923-.346-2.127a29.955,29.955,0,0,0-3.3-.31,12.471,12.471,0,0,0-3.053-.034" transform="translate(-491.065 -665.115)" fill="none" stroke="#ffb6a5" stroke-linecap="round" stroke-linejoin="round" stroke-miterlimit="10" stroke-width="6"/>
      <path id="패스_211" data-name="패스 211" d="M642.557,703.508q-.133,10.879.363,21.753" transform="translate(-516.92 -665.324)" fill="none" stroke="#ffb6a5" stroke-linecap="round" stroke-miterlimit="10" stroke-width="6"/>
      <path id="패스_212" data-name="패스 212" d="M418.711,624.5a155.841,155.841,0,0,0,19.289.662,17.975,17.975,0,0,1,4.977.3" transform="translate(-404.581 -624.501)" fill="none" stroke="#ffb6a5" stroke-linecap="round" stroke-linejoin="round" stroke-miterlimit="10" stroke-width="6"/>
      <g id="그룹_212" data-name="그룹 212" transform="translate(44.783 2.135)">
        <path id="패스_214" data-name="패스 214" d="M490.7,634.053a33.055,33.055,0,0,0-7.734-4.519,1.017,1.017,0,0,0-.546-.113c-.46.077-.553.656-.532,1.1a52.2,52.2,0,0,0,1.4,9.773l-.12-.714" transform="translate(-481.885 -629.413)" fill="#ffe7a4" stroke="#ffb6a5" stroke-linecap="round" stroke-linejoin="round" stroke-miterlimit="10" stroke-width="6"/>
        <path id="패스_215" data-name="패스 215" d="M519.368,634.053a33.074,33.074,0,0,1,7.734-4.519,1.017,1.017,0,0,1,.546-.113c.459.077.553.656.532,1.1a52.247,52.247,0,0,1-1.4,9.773l.12-.714" transform="translate(-500.544 -629.413)" fill="#ffe7a4" stroke="#ffb6a5" stroke-linecap="round" stroke-linejoin="round" stroke-miterlimit="10" stroke-width="6"/>
        <path id="패스_213" data-name="패스 213" d="M491.437,639.936a13.184,13.184,0,0,0-9.409,10.819,13.554,13.554,0,0,0,7.933,13.786c5.382,2.307,14.126.479,17.183-4.311a13.8,13.8,0,0,0,1.434-3.113,13.251,13.251,0,0,0-3.447-14.111c-3.7-3.682-6.956-3.71-13.695-3.07" transform="translate(-481.911 -634.494)" fill="none" stroke="#ffb6a5" stroke-linecap="round" stroke-linejoin="round" stroke-miterlimit="10" stroke-width="6"/>
      </g>
      <g id="그룹_213" data-name="그룹 213" transform="translate(77.399 5.202)">
        <path id="패스_216" data-name="패스 216" d="M557.658,673.107a11.772,11.772,0,0,0,6.867,9.057c5.382,2.578,14.126.535,17.183-4.818a18.952,18.952,0,0,0,1.434-4.239" transform="translate(-553.269 -655.3)" fill="none" stroke="#ffb6a5" stroke-linecap="round" stroke-linejoin="round" stroke-miterlimit="10" stroke-width="6"/>
        <path id="패스_217" data-name="패스 217" d="M557.114,641.113a21.187,21.187,0,0,0-5.544,4.6,9.679,9.679,0,0,0-2.649,5.737c-.075,2.146,1.263,4.445,3.367,4.872a4.836,4.836,0,0,0,4.857-2.576,11.536,11.536,0,0,0,1.177-5.687c.024-2.493-.776-4.489-1.209-6.945" transform="translate(-548.919 -640.009)" fill="#ffe7a4" stroke="#ffb6a5" stroke-linecap="round" stroke-linejoin="round" stroke-miterlimit="10" stroke-width="6"/>
        <path id="패스_218" data-name="패스 218" d="M599.521,641.113a21.169,21.169,0,0,1,5.544,4.6,9.68,9.68,0,0,1,2.649,5.737c.075,2.146-1.263,4.445-3.367,4.872a4.837,4.837,0,0,1-4.857-2.576,11.534,11.534,0,0,1-1.177-5.687c-.024-2.493.777-4.489,1.209-6.945" transform="translate(-573.508 -640.009)" fill="#ffe7a4" stroke="#ffb6a5" stroke-linecap="round" stroke-linejoin="round" stroke-miterlimit="10" stroke-width="6"/>
        <path id="패스_219" data-name="패스 219" d="M564.958,641.207a16.557,16.557,0,0,1,8.875-2.294,19.615,19.615,0,0,1,9.37,2.294" transform="translate(-556.903 -638.914)" fill="none" stroke="#ffb6a5" stroke-linecap="round" stroke-linejoin="round" stroke-width="6"/>
      </g>
    </g>
  </g>
</svg>
